Coordinates
version=1
nRows=13
nColumns=22
inDegrees=yes

Units are S.I. units (second, meters, Newtons, ...)
If the header above contains a line with 'inDegrees', this indicates whether rotational values are in degrees (yes) or radians (no).

endheader
time	pelvis_tilt	pelvis_list	pelvis_rotation	pelvis_tx	pelvis_ty	pelvis_tz	hip_flexion_r	hip_adduction_r	hip_rotation_r	knee_angle_r	ankle_angle_r	subtalar_angle_r	hip_flexion_l	hip_adduction_l	hip_rotation_l	knee_angle_l	ankle_angle_l	subtalar_angle_l	lumbar_extension	lumbar_bending	lumbar_rotation
      1.82000000	      1.65107667	     -1.78263540	     57.66201415	      0.81368827	      1.03983514	      0.70594820	     23.29163516	      1.00026297	     12.19036736	     -9.72908864	      9.04014476	     12.35019979	     -8.49405758	      7.52514505	     24.16914647	    -19.70480600	     19.19781649	    -16.81750469	     -2.28091921	     -1.83835678	     -7.39838695
      1.83000000	      1.89376445	     -1.98471794	     58.35834680	      0.81941991	      1.03835679	      0.69813884	     23.42791763	      1.39605322	     12.54541026	    -10.23589865	      8.26253634	     12.38180515	     -8.64474942	      7.13896117	     24.20418939	    -20.47933041	     19.35829571	    -16.66695815	     -2.24013419	     -1.53631874	     -7.33934874
      1.84000000	      2.12793826	     -2.20455281	     59.03622280	      0.82512206	      1.03706697	      0.69025275	     23.69077392	      1.81747168	     12.78677502	    -11.20866911	      7.37723821	     12.33408253	     -8.69898106	      6.77185780	     24.24311657	    -21.38358550	     19.44054964	    -16.28730057	     -2.16953273	     -1.23343781	     -7.25057311
      1.85000000	      2.38483679	     -2.41362678	     59.69405843	      0.83078726	      1.03610275	      0.68223975	     23.98872781	      2.26667180	     12.94286811	    -12.50237840	      6.44662008	     12.27692925	     -8.70581731	      6.41088848	     24.26972855	    -22.39805096	     19.30594455	    -15.79294741	     -2.11325274	     -0.90643707	     -7.16883973
      1.86000000	      2.67945364	     -2.59207703	     60.32677065	      0.83641650	      1.03551137	      0.67409599	     24.27311397	      2.74016254	     12.98314707	    -14.00787336	      5.60563760	     12.23773239	     -8.67530669	      6.05939866	     24.26168333	    -23.55176722	     19.01198915	    -15.16065246	     -2.10000205	     -0.55356185	     -7.06791339
      1.87000000	      3.01172262	     -2.72580176	     60.94247180	      0.84197551	      1.03533671	      0.66580261	     24.48683615	      3.21486764	     12.91958054	    -15.57989822	      4.91937196	     12.21390193	     -8.60788648	      5.72509420	     24.19437916	    -24.85800286	     18.51714569	    -14.38232815	     -2.14193858	     -0.17795721	     -6.95644029
      1.88000000	      3.34905285	     -2.80877008	     61.54143753	      0.84748251	      1.03557783	      0.65733620	     24.60229615	      3.65259401	     12.79704643	    -17.10737716	      4.50550308	     12.18301086	     -8.48473161	      5.43487480	     24.03736618	    -26.31730583	     17.70528770	    -13.29786155	     -2.21846101	      0.18240640	     -6.84805314
      1.89000000	      3.69838131	     -2.83837056	     62.15445626	      0.85287508	      1.03622034	      0.64870836	     24.57800561	      4.03990951	     12.60349181	    -18.49066262	      4.29514414	     12.11745660	     -8.28995804	      5.17593715	     23.76874412	    -27.95423553	     16.62278421	    -12.00850689	     -2.34096682	      0.53561390	     -6.76077445
      1.90000000	      4.03740088	     -2.82546981	     62.80990214	      0.85812686	      1.03720614	      0.63991611	     24.40905642	      4.35210480	     12.34341758	    -19.66994989	      4.28391917	     11.98267865	     -7.98650981	      4.94990151	     23.37777781	    -29.77787686	     15.22165330	    -10.46937299	     -2.48237202	      0.86116551	     -6.71575915
      1.91000000	      4.34262300	     -2.76884063	     63.50766820	      0.86325701	      1.03847277	      0.63098448	     24.11105823	      4.57971969	     12.05162563	    -20.65956871	      4.46585153	     11.74899069	     -7.56755227	      4.76235236	     22.84933608	    -31.75737158	     13.47665405	     -8.62677253	     -2.63011667	      1.13407516	     -6.72489710
      1.92000000	      4.61984052	     -2.69522626	     64.28631058	      0.86819527	      1.03994046	      0.62193348	     23.68945954	      4.72428546	     11.68604068	    -21.42077448	      4.78380421	     11.41644357	     -6.98453380	      4.58016999	     22.17672180	    -33.91584980	     11.40748716	     -6.56614656	     -2.76483983	      1.37071048	     -6.78702961
      1.93000000	      4.87111672	     -2.61958691	     65.15294271	      0.87293477	      1.04153447	      0.61280250	     23.16627072	      4.79745929	     11.23093784	    -21.96722798	      5.20197285	     11.00182825	     -6.21984541	      4.38002697	     21.36339342	    -36.23795154	      9.04897936	     -4.32724146	     -2.87285357	      1.57908315	     -6.89599041
      1.94000000	      5.10772040	     -2.55535375	     66.10516285	      0.87746067	      1.04318810	      0.60364348	     22.56938022	      4.82029459	     10.66864877	    -22.33435083	      5.68495837	     10.55232973	     -5.26651393	      4.13745606	     20.42649860	    -38.70064914	      6.45136355	     -2.05424835	     -2.95216677	      1.77352421	     -7.04553211
